<svg xmlns="http://www.w3.org/2000/svg"  viewBox="0 0 50 50" width="100px" height="100px"><path d="M 19.287109 2.1445312 C 19.245592 2.1376593 19.2056 2.1519981 19.164062 2.1503906 C 19.075571 2.1469615 18.988383 2.1445157 18.902344 2.1640625 C 18.847395 2.1766257 18.800219 2.2029538 18.748047 2.2246094 C 18.672804 2.2554178 18.601749 2.2869997 18.535156 2.3359375 C 18.517003 2.3492902 18.493907 2.3525412 18.476562 2.3671875 C 18.446453 2.392613 18.432842 2.4305487 18.40625 2.4589844 C 18.371762 2.4953599 18.328264 2.520127 18.298828 2.5625 C 18.279976 2.5898177 18.277504 2.6219584 18.261719 2.6503906 C 18.232646 2.7022928 18.212746 2.7542817 18.193359 2.8105469 C 18.167136 2.8868626 18.147793 2.960364 18.140625 3.0390625 C 18.137599 3.0706729 18.121094 3.0987962 18.121094 3.1308594 L 18.121094 10.929688 C 10.800998 11.446474 5 17.551615 5 25 C 5 32.786 11.334094 39.121094 19.121094 39.121094 C 21.798308 39.121094 24.296093 38.358046 26.431641 37.058594 L 36.941406 49.695312 C 37.139406 49.932313 37.423938 50.056641 37.710938 50.056641 C 37.936938 50.056641 38.163609 49.978219 38.349609 49.824219 C 38.774609 49.472219 38.831516 48.842969 38.478516 48.417969 L 28.078125 35.908203 C 30.492468 33.92241 32.2332 31.150944 32.917969 27.990234 L 45.75 22.642578 C 46.122 22.487578 46.365234 22.123703 46.365234 21.720703 L 46.365234 7.5039062 C 46.365234 7.4321683 46.342612 7.3666303 46.328125 7.2988281 C 46.318644 7.253664 46.320522 7.2078794 46.304688 7.1640625 C 46.262248 7.0465587 46.198218 6.940456 46.117188 6.8476562 C 46.112998 6.8428596 46.111719 6.8367686 46.107422 6.8320312 C 46.08551 6.8078751 46.05489 6.7988707 46.03125 6.7773438 C 45.966087 6.7175695 45.898211 6.6621061 45.818359 6.6210938 C 45.773434 6.5980684 45.727026 6.5861525 45.679688 6.5703125 C 45.629106 6.5531913 45.583453 6.5265667 45.529297 6.5175781 L 19.287109 2.1445312 z M 23.384766 4.8554688 L 43.160156 8.1503906 L 36.669922 14.023438 L 23.384766 4.8554688 z M 20.121094 5.0332031 L 36.185547 16.119141 C 36.357547 16.237141 36.555906 16.296875 36.753906 16.296875 C 36.995906 16.296875 37.235781 16.208156 37.425781 16.035156 L 44.365234 9.7558594 L 44.365234 21.052734 L 33.207031 25.703125 C 33.21867 25.468584 33.242188 25.237376 33.242188 25 C 33.242187 17.55116 27.441744 11.44582 20.121094 10.929688 L 20.121094 5.0332031 z M 18.121094 12.929688 L 18.121094 32.654297 C 18.121094 32.988297 18.288406 33.300328 18.566406 33.486328 C 18.733406 33.597328 18.926094 33.654297 19.121094 33.654297 C 19.251094 33.654297 19.382812 33.629125 19.507812 33.578125 L 30.5625 28.970703 C 28.91347 33.70772 24.413183 37.121094 19.121094 37.121094 C 12.437094 37.121094 7 31.684 7 25 C 7 18.6539 11.904776 13.441449 18.121094 12.929688 z M 20.121094 12.929688 C 20.763353 12.982479 21.389763 13.088882 22 13.238281 L 22 15.972656 L 20.121094 15.998047 L 20.121094 12.929688 z M 24 13.912109 C 24.703842 14.222998 25.373716 14.595923 26 15.029297 L 26 15.916016 L 24 15.943359 L 24 13.912109 z M 28.908203 17.876953 C 29.575187 18.790802 30.115232 19.799296 30.507812 20.880859 L 28 20.908203 L 28 17.888672 L 28.908203 17.876953 z M 26 17.916016 L 26 20.931641 L 24 20.955078 L 24 17.945312 L 26 17.916016 z M 22 17.972656 L 22 20.976562 L 20.121094 20.998047 L 20.121094 17.998047 L 22 17.972656 z M 31.042969 22.869141 C 31.166615 23.562312 31.242188 24.271809 31.242188 25 C 31.242188 25.297834 31.218486 25.590301 31.197266 25.882812 L 28 25.916016 L 28 22.910156 L 31.011719 22.875 C 31.022815 22.874879 31.031964 22.86962 31.042969 22.869141 z M 26 22.931641 L 26 25.9375 L 24 25.958984 L 24 22.955078 L 26 22.931641 z M 22 22.976562 L 22 25.978516 L 20.121094 25.998047 L 20.121094 22.998047 L 22 22.976562 z M 26 27.9375 L 26 28.705078 L 24 29.539062 L 24 27.958984 L 26 27.9375 z M 22 27.978516 L 22 30 C 22 30.121553 22.028722 30.234108 22.068359 30.341797 L 20.121094 31.154297 L 20.121094 27.998047 L 22 27.978516 z"/></svg>